<?xml version="1.0" encoding="utf-8"?>
<!-- Generator: Adobe Illustrator 21.0.0, SVG Export Plug-In . SVG Version: 6.00 Build 0)  -->
<svg version="1.1" id="Capa_1" xmlns="http://www.w3.org/2000/svg" xmlns:xlink="http://www.w3.org/1999/xlink" x="0px" y="0px"
	 viewBox="0 0 57.6 57.6" style="enable-background:new 0 0 57.6 57.6;" xml:space="preserve">
<style type="text/css">
	.st0{fill:#F8B419;}
	.st1{fill:#546A79;stroke:#ECF0F1;stroke-width:2;stroke-miterlimit:10;}
	.st2{fill:#38454F;}
	.st3{fill:#ECF0F1;}
</style>
<path class="st0" d="M5.3,21.1c-0.3,0.6,0.1,1.4,0.8,1.5l7.6,1c4.1,0.5,7.5,3.8,7.9,7.9c0,0.3,0,0.5,0,0.8c0.1,4.9-3,10.4,6.4,14.6
	c5.4,2.4,11.6,0.8,15.2-3.6c1.3-1.6,3.5-2.2,5.4-1.4l3.8,1.7c0.8,0.4,1.8-0.1,2.1-0.9c5.1-13.2,1.1-28.2-12-34
	C29.5,2.8,11.9,8.4,5.3,21.1z"/>
<circle class="st1" cx="33.2" cy="35.4" r="6.5"/>
<path class="st2" d="M51.1,43l-1.8,3.2l3.7,3.2c0.6,0.5,1.5,0.3,1.9-0.4l2.5-5.6c0.7-1.5,0-3.3-1.6-4l-0.2-0.1
	c-0.3,1.1-0.6,2.2-1.1,3.3c-0.3,0.9-1.3,1.3-2.1,0.9L51.1,43z"/>
<path class="st3" d="M44,35.5v-1.2c0-1.1,0.9-2,2-2h1.2c1.1,0,2,0.9,2,2v1.2c0,1.1-0.9,2-2,2H46C44.9,37.5,44,36.6,44,35.5z"/>
<path class="st2" d="M0,41.2l0,6.6c0,2,1.6,3.5,3.6,3.5h11.3c5,0,14.7-7,16.6-13.1c0.6-0.7,0.7-1.6,0.4-2.4
	c-0.4-0.9-1.2-1.5-2.2-1.5H16.5c-0.5,0-0.9,0.1-1.3,0.3L0,41.2z M2,42.5l12.9-5.6v5.6L2,44.9V42.5z M16.9,41.7v-5.4h11.5L16.9,41.7
	L16.9,41.7z M16.9,48.9v-5l12.5-5.8C27.7,42.6,21.1,47.5,16.9,48.9z M2,47.8v-0.9l12.9-2.5v4.8H3.6C2.7,49.3,2,48.7,2,47.8z"/>
</svg>
