<?xml version="1.0" encoding="iso-8859-1"?>
<!-- Generator: Adobe Illustrator 19.0.0, SVG Export Plug-In . SVG Version: 6.00 Build 0)  -->
<svg version="1.1" id="Capa_1" xmlns="http://www.w3.org/2000/svg" xmlns:xlink="http://www.w3.org/1999/xlink" x="0px" y="0px"
	 viewBox="0 0 57.621 57.621" style="enable-background:new 0 0 57.621 57.621;" xml:space="preserve">
<path style="fill:#D25627;" d="M15.018,8.599C1.955,14.38-2.001,29.394,3.059,42.617c0.33,0.862,1.299,1.289,2.143,0.916
	l3.804-1.683c1.893-0.838,4.059-0.225,5.368,1.378c3.586,4.389,9.787,6.034,15.22,3.63c9.408-4.163,6.311-9.693,6.382-14.579
	c0.004-0.258,0.018-0.515,0.043-0.769c0.404-4.137,3.823-7.345,7.943-7.894l7.557-1.007c0.701-0.093,1.085-0.856,0.759-1.484
	C45.708,8.447,28.161,2.783,15.018,8.599z"/>
<circle style="fill:#546A79;stroke:#ECF0F1;stroke-width:2;stroke-miterlimit:10;" cx="24.422" cy="35.36" r="6.455"/>
<path style="fill:#38454F;" d="M5.202,43.533c-0.844,0.374-1.813-0.053-2.143-0.916c-0.423-1.105-0.759-2.224-1.056-3.347
	l-0.192,0.084c-1.528,0.669-2.226,2.45-1.557,3.978l2.456,5.614c0.32,0.731,1.257,0.941,1.858,0.416l3.716-3.244l-1.771-3.166
	L5.202,43.533z"/>
<path style="fill:#ECF0F1;" d="M11.663,37.512h-1.221c-1.105,0-2-0.895-2-2v-1.221c0-1.105,0.895-2,2-2h1.221c1.105,0,2,0.895,2,2
	v1.221C13.663,36.616,12.768,37.512,11.663,37.512z"/>
<path style="fill:#38454F;" d="M42.507,34.619c-0.43-0.172-0.882-0.259-1.346-0.259H27.91c-0.982,0-1.85,0.59-2.21,1.504
	c-0.322,0.818-0.17,1.725,0.381,2.386c1.938,6.109,11.59,13.06,16.618,13.06H54c2.03,0,3.621-1.542,3.621-3.509v-6.643
	L42.507,34.619z M55.621,44.913l-12.922-2.432v-5.6l12.922,5.591V44.913z M40.699,41.741L29.17,36.36h11.53V41.741z M28.167,38.099
	l12.533,5.849v4.967C36.474,47.523,29.907,42.598,28.167,38.099z M54,49.311H42.699v-4.823l12.922,2.459v0.855
	C55.621,48.662,54.924,49.311,54,49.311z"/>
<g>
</g>
<g>
</g>
<g>
</g>
<g>
</g>
<g>
</g>
<g>
</g>
<g>
</g>
<g>
</g>
<g>
</g>
<g>
</g>
<g>
</g>
<g>
</g>
<g>
</g>
<g>
</g>
<g>
</g>
</svg>
